<?xml version="1.0" encoding="utf-8"?>
<!-- Generator: Adobe Illustrator 19.2.1, SVG Export Plug-In . SVG Version: 6.00 Build 0)  -->
<svg version="1.1" id="Layer_1" xmlns="http://www.w3.org/2000/svg" xmlns:xlink="http://www.w3.org/1999/xlink" x="0px" y="0px"
	 viewBox="0.00029 -0.00028 28.1875 28.1954" style="enable-background:new 0.00029 -0.00028 28.1875 28.1954;"
	 xml:space="preserve">
<path d="M19.52599,0.02412c0.28,0,0.56,0.0002,0.84,0.0019c0.2834,0.0017,0.5667,0.005,0.8501,0.0126
	c0.6173,0.0167,1.2401,0.0531,1.8506,0.1629c0.6193,0.1113,1.1958,0.293,1.7585,0.5794c0.5531,0.2816,1.0592,0.6494,1.498,1.0883
	c0.4388,0.4388,0.8066,0.9447,1.0881,1.4978c0.28671,0.563,0.4684,1.1397,0.5798,1.7594c0.1096,0.6103,0.146,1.2328,0.1627,1.85
	c0.0076,0.2833,0.0109,0.5666,0.0126,0.85c0.0017,0.2703,0.0019,0.5406,0.0019,0.8109v10.9426c0,0.2703-0.0002,0.5406-0.0019,0.8109
	c-0.0017,0.2834-0.005,0.5667-0.0126,0.85c-0.0167,0.6172-0.0531,1.2397-0.1627,1.8499c-0.1114,0.6198-0.29309,1.1965-0.5798,1.7595
	c-0.2815,0.553-0.6493,1.059-1.0881,1.4978c-0.4388,0.4389-0.9449,0.8067-1.498,1.0883c-0.5627,0.2864-1.1392,0.4681-1.7585,0.5794
	c-0.6105,0.1098-1.2333,0.1462-1.8506,0.1629c-0.2834,0.0076-0.5667,0.0109-0.8501,0.0126
	c-0.27971,0.0017-0.5594,0.0019-0.8392,0.0019h-0.1701H8.81089h-0.1701c-0.2797,0-0.5595-0.0002-0.8392-0.0019
	c-0.2834-0.0017-0.5667-0.005-0.8501-0.0126c-0.6173-0.0167-1.2401-0.0531-1.8506-0.1629c-0.6193-0.1113-1.1958-0.293-1.7585-0.5794
	c-0.5531-0.2816-1.0592-0.6494-1.498-1.0883c-0.4388-0.4388-0.8066-0.9448-1.0881-1.4978c-0.2867-0.563-0.4685-1.1397-0.5798-1.7595
	c-0.1096-0.6102-0.146-1.2327-0.1627-1.8499c-0.0076-0.2833-0.0109-0.5666-0.0126-0.85c-0.0017-0.2699-0.0019-0.5397-0.0019-0.8096
	v-0.1997V8.83572v-0.1997c0-0.2699,0.0002-0.5397,0.0019-0.8096c0.0017-0.2834,0.005-0.5667,0.0126-0.85
	c0.0167-0.6172,0.0531-1.2397,0.1627-1.85c0.1113-0.6197,0.2931-1.1964,0.5798-1.7594c0.2815-0.5531,0.6493-1.059,1.0881-1.4978
	c0.4388-0.4389,0.9449-0.8067,1.498-1.0883c0.5627-0.2864,1.1392-0.4681,1.7585-0.5794c0.6105-0.1098,1.2333-0.1462,1.8506-0.1629
	c0.2834-0.0076,0.5667-0.0109,0.8501-0.0126c0.28-0.0017,0.56-0.0019,0.84-0.0019H19.52599z M24.49409,11.12112
	c-0.0178-0.0548-0.0517-0.1042-0.1006-0.1459c-0.0497-0.0426-0.1115-0.0749-0.1861-0.1011
	c-0.0122-0.0044-0.0247-0.0085-0.0374-0.0124c-0.10541-0.0327-0.21511-0.0497-0.32531-0.0555
	c-0.3224-0.0174-0.6453-0.0261-0.9684-0.0261l-6.0919-0.0002l-1.8823-5.7934c-0.0999-0.3071-0.2078-0.6116-0.324-0.9129
	c-0.0396-0.103-0.0896-0.2021-0.1533-0.2923c-0.0077-0.0108-0.0156-0.0214-0.0234-0.0318
	c-0.0479-0.0627-0.0979-0.1115-0.1537-0.1457c-0.0548-0.0335-0.1122-0.0506-0.1698-0.0506s-0.115,0.0171-0.1699,0.0506
	c-0.05581,0.0342-0.1055,0.083-0.1536,0.1457c-0.0079,0.0104-0.0157,0.021-0.0235,0.0318
	c-0.0635,0.0902-0.1137,0.1893-0.1533,0.2923c-0.1162,0.3013-0.2241,0.6058-0.3239,0.9129l-1.8827,5.7936H5.27949
	c-0.323,0-0.6459,0.0087-0.9685,0.0261c-0.1102,0.0058-0.2198,0.0228-0.3253,0.0555c-0.0127,0.0039-0.0251,0.008-0.0374,0.0124
	c-0.0746,0.0262-0.1364,0.0585-0.1861,0.1011c-0.0489,0.0417-0.0828,0.0911-0.1006,0.1459
	c-0.0179,0.0548-0.0194,0.1147-0.0044,0.1772c0.0152,0.0636,0.0462,0.1261,0.0912,0.1912c0.0074,0.0106,0.015,0.0213,0.0229,0.032
	c0.0662,0.0884,0.1449,0.1666,0.2306,0.2361c0.2509,0.2036,0.5069,0.4004,0.7682,0.5903l4.9278,3.5804l-1.8819,5.7938
	c-0.0999,0.3072-0.1913,0.617-0.2747,0.929c-0.0284,0.1067-0.0462,0.2163-0.0475,0.3266c-0.0003,0.0133-0.0003,0.0264,0.0001,0.0394
	c0.002,0.0791,0.0135,0.1478,0.0387,0.2084c0.0246,0.0593,0.0609,0.1069,0.1076,0.1407c0.0468,0.0339,0.1031,0.0538,0.1673,0.0589
	c0.0651,0.0052,0.1342-0.005,0.2099-0.0276c0.0126-0.0037,0.0249-0.0077,0.03761-0.012c0.1045-0.0355,0.20319-0.0863,0.2958-0.1462
	c0.2711-0.1756,0.5375-0.3584,0.7987-0.5482l4.9292-3.5809l4.9079,3.5656c0.2613,0.1898,0.5275,0.3726,0.7986,0.5481
	c0.0927,0.06,0.1913,0.1108,0.296,0.1463c0.0126,0.0043,0.0251,0.0083,0.0374,0.012c0.0759,0.0226,0.1449,0.0328,0.2101,0.0276
	c0.064-0.0051,0.1205-0.025,0.1671-0.0589c0.0467-0.0338,0.0831-0.0814,0.1077-0.1408c0.0251-0.0604,0.0367-0.1292,0.0388-0.2083
	c0.0002-0.013,0.0002-0.0261,0.0001-0.0394c-0.0015-0.1103-0.0193-0.2199-0.0477-0.3266c-0.0831-0.312-0.1746-0.6218-0.2745-0.929
	l-1.8745-5.7694l0.0118-0.0087l-0.0001-0.0002l4.9283-3.5806c0.2614-0.1899,0.5175-0.3867,0.7681-0.5903
	c0.0859-0.0695,0.1646-0.1477,0.2307-0.2361c0.0079-0.0107,0.0156-0.0214,0.023-0.032c0.0448-0.0651,0.0759-0.1276,0.0911-0.1912
	C24.51349,11.23582,24.51209,11.17592,24.49409,11.12112z"/>
</svg>
